<svg width="148" height="160" viewBox="0 0 148 160" fill="none" xmlns="http://www.w3.org/2000/svg">
<path d="M71.552 120H59.008V110.528L49.792 120H36.864L25.856 108.864V64.704L36.864 53.568H59.008V31.424L71.552 18.88V120ZM59.008 108.864V55.104L49.28 64.704H38.528V108.864H59.008Z" fill="black"/>
<path d="M77.448 120H89.992V110.528L99.208 120H112.136L123.144 108.864V64.704L112.136 53.568H89.992V31.424L77.448 18.88V120ZM89.992 108.864V55.104L99.72 64.704H110.472V108.864H89.992Z" fill="#BD00FF"/>
<path d="M16.992 148.216L14.208 151H3.168V134.392L5.952 131.672H2.784V128.888H14.208L16.992 131.672V148.216ZM13.824 148.216V131.672H6.336V150.616L8.672 148.216H13.824ZM33.6053 139.928L30.4373 143.096V137.176H25.7333V151H22.5653V134.392H25.7333V136.792L28.0373 134.392H30.8533L33.6053 137.176V139.928ZM48.4818 151H39.8098L37.0578 148.216V137.176L39.8098 134.392H45.7298L48.4818 137.176V142.712L45.7298 145.464H40.6098L43.4258 142.712H45.3458V137.176H40.2258V148.216H48.4818V151ZM63.6275 151H60.4595V148.632L58.0915 151H54.9235L52.1715 148.216V142.712L54.9235 139.928H60.1395L57.5155 142.68H55.3075V148.216H60.4595V137.176H51.7555L54.1235 134.392H60.8755L63.6275 137.176V151ZM87.9155 151H84.7475V137.176H80.0115V151H76.8435V137.176H72.1395V151H68.9715V134.392H72.1395V136.792L74.4755 134.392H77.6435L79.5955 136.408L81.5795 134.392H85.1315L87.9155 137.176V151Z" fill="black"/>
<path d="M107.461 148.216L104.677 151H93.6368V134.392L96.4208 131.672H93.2528V128.888H102.309L105.093 131.672V135.608L103.141 137.56H105.093L107.461 139.928V148.216ZM101.925 137.56V131.672H96.8048V139.928L99.1408 137.56H101.925ZM104.293 148.216V139.928H96.8048V148.216H104.293ZM115.577 131.672H112.409V128.504H115.577V131.672ZM115.577 151H112.409V136.824L115.577 133.624V151ZM132.201 151H129.065V148.632L126.76 151H123.529L120.777 148.216V137.176L123.529 134.392H129.065V128.856L132.201 125.72V151ZM129.065 148.216V134.776L126.633 137.176H123.945V148.216H129.065ZM147.16 137.176H139.256V139.928H143.608L146.392 142.712V148.216L143.608 151H136.088V148.216H143.224V142.712H138.872L136.088 139.928V137.176L138.872 134.392H144.344L147.16 137.176Z" fill="#BD00FF"/>
</svg>
